<?xml version="1.0" encoding="utf-8"?>
<!-- Svg Vector Icons : http://www.onlinewebfonts.com/icon -->
<!DOCTYPE svg PUBLIC "-//W3C//DTD SVG 1.1//EN" "http://www.w3.org/Graphics/SVG/1.1/DTD/svg11.dtd">
<svg version="1.1" xmlns="http://www.w3.org/2000/svg" xmlns:xlink="http://www.w3.org/1999/xlink" x="0px" y="0px" viewBox="0 0 256 256" enable-background="new 0 0 256 256" xml:space="preserve">
<metadata> Svg Vector Icons : http://www.onlinewebfonts.com/icon </metadata>
<g><g><g><path fill="#98acb8" d="M122.8,10.5c-4.2,0.8-9.4,3.7-12.9,7.1C99.8,27.7,99.8,44,110,54c2.6,2.5,7.1,5.4,9.5,6l1.2,0.3l-0.1,19.6l-0.1,19.6l-2.4,0.8c-3.1,1.1-6.2,2.9-8.9,5.2l-2.2,1.8l-16.8-9.7l-16.8-9.7l0.4-2.2c1-4.9-0.7-12.8-3.8-17.6c-1.9-2.9-6.5-7.2-9.5-8.9c-3-1.6-8.8-3.1-12.1-3.1c-11.9,0-22.2,8.2-25.2,19.9c-1.1,4.2-0.7,10.7,0.9,14.9c5.9,15.5,24.6,21.7,38.1,12.6c1.6-1.1,3.1-2.1,3.4-2.3c0.3-0.2,7.1,3.4,17.2,9.2l16.7,9.6l-0.4,2.1c-0.4,2.7-0.4,9.3,0,12l0.4,2.1l-16.7,9.6c-10.1,5.8-16.9,9.5-17.2,9.2c-0.3-0.2-1.8-1.2-3.4-2.3c-14.6-9.8-34.6-1.8-39.1,15.6c-1.1,4.2-0.7,10.7,0.9,14.9c5,13.1,19.7,20.1,32.7,15.4c11.2-4.1,18.5-15.4,17.2-26.8l-0.4-3.6l16.7-9.6l16.7-9.7l3.4,2.5c2.9,2.1,6.4,4,9.7,5c0.7,0.2,0.8,1.6,0.8,19.6v19.3l-3.9,1.9c-8.9,4.3-14.6,13.3-14.6,23.1c0,15.6,14.1,27.7,29.6,25.5c12.6-1.8,22.1-12.9,22.1-25.7c0-9.1-5.8-18.4-13.9-22.5c-1.8-0.9-3.6-1.7-3.9-1.7c-0.6,0-0.6-3.4-0.6-19.6c0-18.3,0-19.6,0.8-19.9c3.3-1.1,6.8-2.9,9.7-5l3.4-2.5l16.7,9.6c9.2,5.3,16.7,9.9,16.6,10.1c0,0.3-0.2,2-0.4,3.8c-0.6,6.8,2,13.8,6.8,19c5,5.3,10.5,7.9,17.5,8.4c11.2,0.7,21.4-6,25.7-16.7c1.2-2.9,1.2-3.8,1.2-8.9c0-5.2-0.1-6.1-1.2-8.9c-4.2-10.8-14.5-17.4-25.7-16.7c-5.8,0.4-10.6,2.4-15.9,6.5c-0.3,0.3-7-3.3-17.2-9.2l-16.7-9.6l0.4-2.1c0.5-2.6,0.5-9.3,0-12l-0.4-2.1l16.7-9.6c10.1-5.9,16.9-9.5,17.2-9.2c5.3,4.1,10.1,6,15.9,6.5c11.2,0.7,21.4-6,25.7-16.7c1.2-2.9,1.2-3.8,1.2-8.9c0-5.2-0.1-6.1-1.2-8.9c-4.2-10.8-14.5-17.4-25.7-16.7c-7,0.5-12.5,3.1-17.5,8.4c-5.4,5.8-7.9,14.1-6.5,21.3l0.4,1.9l-16.7,9.7l-16.8,9.7l-3.3-2.5c-2.9-2.1-6.4-4-9.7-5c-0.8-0.2-0.8-1.6-0.8-19.9c0-16.2,0.1-19.6,0.6-19.6c0.3,0,2.1-0.7,3.9-1.6c4.7-2.4,8.8-6.6,11.2-11.5C160.6,27.8,144.1,6.5,122.8,10.5z M131.5,25.3c4,1.2,7.7,6.3,7.7,10.5c0,5.7-5.4,11.1-11.1,11.1c-5.7,0-11.1-5.4-11.1-11.1c0-2.9,1.1-5.3,3.5-7.6C123.7,24.9,127.2,24,131.5,25.3z M52.5,71.8c4.4,2,6.6,5.4,6.6,10.1c0,11.6-15.5,15.3-20.7,4.9C33.9,77.7,43.3,67.6,52.5,71.8z M211.7,71.5c7.6,2.7,9.8,12.5,4.1,18.2c-2,2-3.8,2.9-6.7,3.2c-4.4,0.5-8.8-2-10.9-6c-1.3-2.6-1.4-7.1,0-9.7C200.7,72.1,206.6,69.7,211.7,71.5z M134.4,114.7c2.9,1.4,5.7,4.2,7.1,7.1c0.9,1.8,1.1,3,1.1,6.2c0,3.6-0.1,4.2-1.5,6.8c-1.8,3.2-3.2,4.6-6.7,6.5c-2,1.1-2.9,1.2-6.3,1.2c-3.2,0-4.4-0.2-6.2-1.1c-2.9-1.4-5.7-4.2-7.1-7.1c-1.6-3.3-1.6-9.1,0-12.5c1.9-4,5.7-7,9.9-8.1C127.2,113,131.9,113.5,134.4,114.7z M52.5,164c4.4,2,6.6,5.4,6.6,10.1c0,11.6-15.5,15.3-20.7,4.9C33.9,169.9,43.3,159.8,52.5,164z M211.7,163.7c7.6,2.7,9.8,12.5,4.1,18.2c-2,2-3.8,2.9-6.7,3.2c-4.4,0.5-8.8-2-10.9-6c-1.3-2.6-1.4-7.1,0-9.7C200.7,164.3,206.6,161.9,211.7,163.7z M131.5,209.8c4,1.2,7.7,6.3,7.7,10.5c0,5.7-5.4,11.1-11.1,11.1c-5.7,0-11.1-5.4-11.1-11.1c0-2.9,1.1-5.3,3.5-7.6C123.7,209.4,127.2,208.5,131.5,209.8z"/></g></g></g>
</svg>